<?xml version="1.0" standalone="no"?><!DOCTYPE svg PUBLIC "-//W3C//DTD SVG 1.1//EN" "http://www.w3.org/Graphics/SVG/1.1/DTD/svg11.dtd"><svg t="1645773302163" class="icon" viewBox="0 0 1024 1024" version="1.1" xmlns="http://www.w3.org/2000/svg" p-id="38932" width="128" height="128" xmlns:xlink="http://www.w3.org/1999/xlink"><defs><style type="text/css"></style></defs><path d="M311.133 755.516c-130.175 0-152.619-83.042-145.885-116.708 6.733-33.666 44.887-78.554 116.708-78.554 83.042 0 159.351 22.444 249.127 65.088-62.843 80.798-139.152 130.174-219.95 130.174z m648.628-78.553V234.818C959.761 140.554 883.452 62 786.943 62h-552.12C140.56 62 62.007 138.31 62.007 234.818v552.12c0 94.264 76.309 172.818 172.818 172.818h552.12c85.286 0 154.862-60.599 170.573-141.397-44.888-20.2-244.639-105.486-347.88-154.863-78.554 94.265-161.596 152.619-285.038 152.619-123.441 0-206.484-76.31-197.506-170.574 6.733-60.598 49.376-161.596 231.172-143.64 96.509 8.977 141.396 26.932 219.95 53.865 20.2-38.155 38.155-78.554 49.377-121.197h-347.88v-33.666h172.817V338.06H241.557v-38.155h210.972V210.13s2.245-13.467 17.955-13.467h85.287v103.242h224.44v38.155H555.77v62.843h184.04c-15.71 69.576-42.643 132.419-74.065 186.284 51.621 15.71 294.015 89.776 294.015 89.776z" p-id="38933" fill="#1677ff"></path></svg>