<?xml version="1.0" standalone="no"?><!DOCTYPE svg PUBLIC "-//W3C//DTD SVG 1.1//EN" "http://www.w3.org/Graphics/SVG/1.1/DTD/svg11.dtd"><svg t="1645773366492" class="icon" viewBox="0 0 1137 1024" version="1.1" xmlns="http://www.w3.org/2000/svg" p-id="39169" width="142.125" height="128" xmlns:xlink="http://www.w3.org/1999/xlink"><defs><style type="text/css"></style></defs><path d="M426 619.367a33.133 33.133 0 0 1-44.167-13.466l-2.467-4.934-90.833-199.266a13.967 13.967 0 0 1-1.867-6.733c0-9.2 7.367-16.567 16.6-16.567a17 17 0 0 1 9.8 3.067L420.5 457.5a49 49 0 0 0 44.2 4.9L970.532 238c-90.867-106.666-240-176-408.833-176C286 61.401 62 247.801 62 477.734c0 125.1 67.533 238.533 172.5 314.566 8.6 6.134 14.133 16.534 14.133 27 0 3.667-0.633 7.334-1.867 11l-22.7 84c-1.233 3.667-2.466 8-2.466 12.267 0 9.2 7.366 16.566 16.566 16.566 3.667 0 6.767-1.233 9.834-3.066L357.266 876.9c8-4.9 17.2-7.333 26.4-7.967 4.9 0 9.834 0.634 14.734 2.467 53.4 15.333 108.033 22.667 163.3 22.667 276.232 0 500.299-186.4 500.299-416.333 0-68.667-20.267-135.5-57.1-193.133l-575.8 332.333-3.066 2.433z" p-id="39170" fill="#22ac38"></path></svg>