<?xml version="1.0" standalone="no"?><!DOCTYPE svg PUBLIC "-//W3C//DTD SVG 1.1//EN" "http://www.w3.org/Graphics/SVG/1.1/DTD/svg11.dtd"><svg t="1645773540455" class="icon" viewBox="0 0 1024 1024" version="1.1" xmlns="http://www.w3.org/2000/svg" p-id="39377" width="128" height="128" xmlns:xlink="http://www.w3.org/1999/xlink"><defs><style type="text/css"></style></defs><path d="M512 64C264.96 64 64 264.96 64 512s200.96 448 448 448 448-200.96 448-448S759.04 64 512 64z m128.768 512c17.696 0 32 14.304 32 32s-14.304 32-32 32H544v95.136c0 17.696-14.304 32-32 32s-32-14.304-32-32V640h-95.104c-17.696 0-32-14.304-32-32s14.304-32 32-32H480v-64h-95.104c-17.696 0-32-14.304-32-32s14.304-32 32-32H480v-19.776L361.568 309.6c-12.544-12.48-12.064-32.736 0.416-45.248 12.512-12.576 32.704-12.512 45.216-0.064l107.584 107.36 101.632-106.784c12.288-12.832 32.416-13.216 45.152-1.12 12.8 12.192 13.056 32.48 0.864 45.248L544 432.864V448h96.768c17.696 0 32 14.304 32 32s-14.304 32-32 32H544v64h96.768z" p-id="39378" fill="#ff6b00"></path></svg>